/usr/bin/start-video-rec.sh: line 93: kill: (683) - No such process
ffmpeg version 2.8.17-0ubuntu0.1 Copyright (c) 2000-2020 the FFmpeg developers
  built with gcc 5.4.0 (Ubuntu 5.4.0-6ubuntu1~16.04.12) 20160609
  configuration: --prefix=/usr --extra-version=0ubuntu0.1 --build-suffix=-ffmpeg --toolchain=hardened --libdir=/usr/lib/x86_64-linux-gnu --incdir=/usr/include/x86_64-linux-gnu --cc=cc --cxx=g++ --enable-gpl --enable-shared --disable-stripping --disable-decoder=libopenjpeg --disable-decoder=libschroedinger --enable-avresample --enable-avisynth --enable-gnutls --enable-ladspa --enable-libass --enable-libbluray --enable-libbs2b --enable-libcaca --enable-libcdio --enable-libflite --enable-libfontconfig --enable-libfreetype --enable-libfribidi --enable-libgme --enable-libgsm --enable-libmodplug --enable-libmp3lame --enable-libopenjpeg --enable-libopus --enable-libpulse --enable-librtmp --enable-libschroedinger --enable-libshine --enable-libsnappy --enable-libsoxr --enable-libspeex --enable-libssh --enable-libtheora --enable-libtwolame --enable-libvorbis --enable-libvpx --enable-libwavpack --enable-libwebp --enable-libx265 --enable-libxvid --enable-libzvbi --enable-openal --enable-opengl --enable-x11grab --enable-libdc1394 --enable-libiec61883 --enable-libzmq --enable-frei0r --enable-libx264 --enable-libopencv
  libavutil      54. 31.100 / 54. 31.100
  libavcodec     56. 60.100 / 56. 60.100
  libavformat    56. 40.101 / 56. 40.101
  libavdevice    56.  4.100 / 56.  4.100
  libavfilter     5. 40.101 /  5. 40.101
  libavresample   2.  1.  0 /  2.  1.  0
  libswscale      3.  1.101 /  3.  1.101
  libswresample   1.  2.101 /  1.  2.101
  libpostproc    53.  3.100 / 53.  3.100
Input #0, matroska,webm, from '/home/seluser/videos/vid_chrome_or_firefox_40001.mkv':
  Metadata:
    ENCODER         : Lavf56.40.101
  Duration: 00:00:58.30, start: 0.000000, bitrate: 201 kb/s
    Stream #0:0: Video: h264 (Constrained Baseline), yuv420p, 1366x768, SAR 1:1 DAR 683:384, 10 fps, 10 tbr, 1k tbn, 20 tbc (default)
    Metadata:
      ENCODER         : Lavc56.60.100 libx264
      DURATION        : 00:00:58.300000000
[libx264 @ 0x1641720] using SAR=1/1
[libx264 @ 0x1641720] using cpu capabilities: MMX2 SSE2Fast SSSE3 SSE4.2 AVX FMA3 AVX2 LZCNT BMI2
[libx264 @ 0x1641720] profile Constrained Baseline, level 3.2
[libx264 @ 0x1641720] 264 - core 148 r2643 5c65704 - H.264/MPEG-4 AVC codec - Copyleft 2003-2015 - http://www.videolan.org/x264.html - options: cabac=0 ref=1 deblock=0:0:0 analyse=0:0 me=dia subme=0 psy=1 psy_rd=1.00:0.00 mixed_ref=0 me_range=16 chroma_me=1 trellis=0 8x8dct=0 cqm=0 deadzone=21,11 fast_pskip=1 chroma_qp_offset=0 threads=3 lookahead_threads=1 sliced_threads=0 nr=0 decimate=1 interlaced=0 bluray_compat=0 constrained_intra=0 bframes=0 weightp=0 keyint=250 keyint_min=10 scenecut=0 intra_refresh=0 rc=crf mbtree=0 crf=23.0 qcomp=0.60 qpmin=0 qpmax=69 qpstep=4 ip_ratio=1.40 aq=0
Output #0, mp4, to '/home/seluser/videos/vid_chrome_or_firefox_40001.mp4':
  Metadata:
    encoder         : Lavf56.40.101
    Stream #0:0: Video: h264 (libx264) ([33][0][0][0] / 0x0021), yuv420p, 1366x768 [SAR 1:1 DAR 683:384], q=-1--1, 10 fps, 10240 tbn, 10 tbc (default)
    Metadata:
      DURATION        : 00:00:58.300000000
      encoder         : Lavc56.60.100 libx264
Stream mapping:
  Stream #0:0 -> #0:0 (h264 (native) -> h264 (libx264))
Press [q] to stop, [?] for help
frame=   30 fps=0.0 q=10.0 size=      51kB time=00:00:02.60 bitrate= 160.1kbits/s    
frame=   61 fps= 60 q=9.0 size=      98kB time=00:00:05.70 bitrate= 140.8kbits/s    
frame=   88 fps= 58 q=10.0 size=     122kB time=00:00:08.40 bitrate= 119.1kbits/s    
frame=  111 fps= 54 q=9.0 size=     131kB time=00:00:10.70 bitrate= 100.0kbits/s    
frame=  129 fps= 51 q=9.0 size=     134kB time=00:00:12.50 bitrate=  88.0kbits/s    
frame=  195 fps= 64 q=9.0 size=     147kB time=00:00:19.10 bitrate=  63.3kbits/s    
frame=  263 fps= 74 q=9.0 size=     682kB time=00:00:25.90 bitrate= 215.6kbits/s    
frame=  292 fps= 71 q=9.0 size=     895kB time=00:00:28.80 bitrate= 254.6kbits/s    
frame=  318 fps= 69 q=9.0 size=     948kB time=00:00:31.40 bitrate= 247.2kbits/s    
frame=  343 fps= 67 q=9.0 size=     949kB time=00:00:33.90 bitrate= 229.3kbits/s    
frame=  360 fps= 64 q=9.0 size=     950kB time=00:00:35.60 bitrate= 218.5kbits/s    
frame=  378 fps= 61 q=9.0 size=     950kB time=00:00:37.40 bitrate= 208.2kbits/s    
frame=  399 fps= 59 q=9.0 size=     952kB time=00:00:39.50 bitrate= 197.4kbits/s    
frame=  425 fps= 59 q=12.0 size=     979kB time=00:00:42.10 bitrate= 190.6kbits/s    
frame=  455 fps= 58 q=9.0 size=    1046kB time=00:00:45.10 bitrate= 190.0kbits/s    
frame=  482 fps= 58 q=9.0 size=    1254kB time=00:00:47.80 bitrate= 214.9kbits/s    
frame=  509 fps= 58 q=10.0 size=    1382kB time=00:00:50.50 bitrate= 224.3kbits/s    
frame=  539 fps= 58 q=9.0 size=    1384kB time=00:00:53.50 bitrate= 211.9kbits/s    
frame=  573 fps= 58 q=9.0 size=    1426kB time=00:00:56.90 bitrate= 205.3kbits/s    
frame=  583 fps= 58 q=-1.0 Lsize=    1429kB time=00:00:58.30 bitrate= 200.9kbits/s    
video:1426kB audio:0kB subtitle:0kB other streams:0kB global headers:0kB muxing overhead: 0.217243%
[libx264 @ 0x1641720] frame I:3     Avg QP:12.00  size:125988
[libx264 @ 0x1641720] frame P:580   Avg QP:10.03  size:  1866
[libx264 @ 0x1641720] mb I  I16..4: 100.0%  0.0%  0.0%
[libx264 @ 0x1641720] mb P  I16..4:  1.6%  0.0%  0.0%  P16..4:  1.8%  0.0%  0.0%  0.0%  0.0%    skip:96.6%
[libx264 @ 0x1641720] coded y,uvDC,uvAC intra: 16.6% 11.6% 10.6% inter: 0.7% 0.8% 0.5%
[libx264 @ 0x1641720] i16 v,h,dc,p: 71% 26%  2%  1%
[libx264 @ 0x1641720] i8c dc,h,v,p: 80% 16%  3%  1%
[libx264 @ 0x1641720] kb/s:200.34
